<svg preserveAspectRatio="none" width="100%" height="100%" overflow="visible" style="display: block;" viewBox="0 0 32 32" fill="none" xmlns="http://www.w3.org/2000/svg">
<g id="material-symbols:file-export-rounded">
<path id="Vector" d="M10.6667 25.9L7.66667 28.9C7.4 29.1667 7.08889 29.2947 6.73333 29.284C6.37778 29.2733 6.06667 29.1342 5.8 28.8667C5.55556 28.6 5.428 28.2889 5.41733 27.9333C5.40667 27.5778 5.53422 27.2667 5.8 27L8.8 24H7.13333C6.75556 24 6.43911 23.8724 6.184 23.6173C5.92889 23.3622 5.80089 23.0453 5.8 22.6667C5.79911 22.288 5.92711 21.9716 6.184 21.7173C6.44089 21.4631 6.75733 21.3351 7.13333 21.3333H12C12.3778 21.3333 12.6947 21.4613 12.9507 21.7173C13.2067 21.9733 13.3342 22.2898 13.3333 22.6667V27.5333C13.3333 27.9111 13.2053 28.228 12.9493 28.484C12.6933 28.74 12.3769 28.8676 12 28.8667C11.6231 28.8658 11.3067 28.7382 11.0507 28.484C10.7947 28.2298 10.6667 27.9129 10.6667 27.5333V25.9ZM17.3333 29.3333C16.9556 29.3333 16.6391 29.2053 16.384 28.9493C16.1289 28.6933 16.0009 28.3769 16 28V22.6667C16 21.5556 15.6111 20.6111 14.8333 19.8333C14.0556 19.0556 13.1111 18.6667 12 18.6667H6.66667C6.28889 18.6667 5.97244 18.5387 5.71733 18.2827C5.46222 18.0267 5.33422 17.7102 5.33333 17.3333V5.33333C5.33333 4.6 5.59467 3.97244 6.11733 3.45067C6.64 2.92889 7.26756 2.66756 8 2.66667H18.6667L26.6667 10.6667V26.6667C26.6667 27.4 26.4058 28.028 25.884 28.5507C25.3622 29.0733 24.7342 29.3342 24 29.3333H17.3333ZM17.3333 12H24L17.3333 5.33333V12Z" fill="var(--fill-0, white)"/>
</g>
</svg>
