<svg preserveAspectRatio="none" width="100%" height="100%" overflow="visible" style="display: block;" viewBox="0 0 24 27.752" fill="none" xmlns="http://www.w3.org/2000/svg">
<g id="Group">
<g id="Vector">
</g>
<path id="Vector_2" d="M17.3333 0C19.1014 0 20.7971 0.702379 22.0474 1.95262C23.2976 3.20286 24 4.89856 24 6.66667V17.3333C24 19.1014 23.2976 20.7971 22.0474 22.0474C20.7971 23.2976 19.1014 24 17.3333 24H6.66667C4.89856 24 3.20286 23.2976 1.95262 22.0474C0.702379 20.7971 0 19.1014 0 17.3333V6.66667C0 4.89856 0.702379 3.20286 1.95262 1.95262C3.20286 0.702379 4.89856 0 6.66667 0H17.3333ZM16.9667 9.12C16.4716 9.12 16.0293 9.20578 15.64 9.37733C15.2524 9.55067 14.9467 9.79067 14.7227 10.0973C14.5013 10.404 14.392 10.7631 14.3947 11.1747C14.392 11.676 14.5564 12.0747 14.888 12.3707C15.2196 12.6667 15.6716 12.8844 16.244 13.024L16.9827 13.2107C17.2298 13.2693 17.4387 13.3351 17.6093 13.408C17.7818 13.4809 17.912 13.5693 18 13.6733C18.0919 13.7797 18.1405 13.9168 18.136 14.0573C18.1393 14.2153 18.0864 14.3694 17.9867 14.492C17.8754 14.6255 17.7303 14.7268 17.5667 14.7853C17.388 14.8564 17.1764 14.892 16.932 14.892C16.6858 14.892 16.464 14.8547 16.2667 14.78C16.0827 14.7114 15.9212 14.5932 15.8 14.4387C15.6811 14.2713 15.613 14.0731 15.604 13.868H14.2147C14.2253 14.3569 14.3436 14.7671 14.5693 15.0987C14.7969 15.4276 15.1124 15.676 15.516 15.844C15.924 16.0129 16.4018 16.0973 16.9493 16.0973C17.5013 16.0973 17.9729 16.0142 18.364 15.848C18.7569 15.6791 19.0573 15.4436 19.2653 15.1413C19.476 14.8364 19.5827 14.4764 19.5853 14.0613C19.5878 13.8018 19.5341 13.5448 19.428 13.308C19.3286 13.0914 19.1857 12.8976 19.008 12.7387C18.8151 12.571 18.598 12.4334 18.364 12.3307C18.1024 12.2157 17.8299 12.1272 17.5507 12.0667L16.9387 11.92C16.7979 11.8875 16.6591 11.8475 16.5227 11.8C16.4012 11.7571 16.285 11.7007 16.176 11.632C16.0821 11.5707 16.0021 11.4902 15.9413 11.396C15.8835 11.3008 15.8569 11.1898 15.8653 11.0787C15.8653 10.9329 15.9071 10.8027 15.9907 10.688C16.0874 10.5647 16.2167 10.471 16.364 10.4173C16.524 10.3507 16.7213 10.3178 16.956 10.3187C17.3 10.3187 17.5729 10.3929 17.7747 10.5413C17.9764 10.6898 18.0902 10.8973 18.116 11.164H19.4907C19.4913 10.7841 19.3785 10.4127 19.1667 10.0973C18.945 9.78055 18.64 9.53134 18.2853 9.37733C17.8691 9.19703 17.4188 9.10923 16.9653 9.12M10.192 9.12C9.58756 9.12 9.04533 9.25689 8.56533 9.53067C8.08137 9.80995 7.68725 10.2217 7.42933 10.7173C7.152 11.2364 7.01289 11.8658 7.012 12.6053C7.012 13.344 7.15111 13.9729 7.42933 14.492C7.70756 15.0111 8.08667 15.408 8.56667 15.6827C9.04667 15.9556 9.58844 16.092 10.192 16.092C10.7911 16.092 11.3298 15.9564 11.808 15.6853C12.294 15.4056 12.6896 14.9924 12.948 14.4947C13.2289 13.9747 13.3693 13.3449 13.3693 12.6053C13.3693 11.8658 13.2289 11.2364 12.948 10.7173C12.6909 10.2198 12.2948 9.80755 11.808 9.53067C11.3151 9.25338 10.7575 9.11168 10.192 9.12ZM5.97333 10.9093H4.564V16H5.97333V10.9093ZM10.192 10.3893C10.5387 10.3893 10.8409 10.4742 11.0987 10.644C11.3573 10.8147 11.5573 11.0644 11.6987 11.3933C11.8427 11.7222 11.9147 12.1267 11.9147 12.6067C11.9147 13.0849 11.8427 13.4893 11.6987 13.82C11.5774 14.1231 11.3685 14.383 11.0987 14.5667C10.829 14.7411 10.5131 14.8303 10.192 14.8227C9.84533 14.8227 9.54222 14.7378 9.28267 14.568C9.01252 14.3829 8.8029 14.1222 8.68 13.8187C8.53778 13.4898 8.46667 13.0853 8.46667 12.6053C8.46667 12.1262 8.53778 11.7218 8.68 11.392C8.82222 11.0631 9.02311 10.8142 9.28267 10.6453C9.54044 10.4747 9.84356 10.3893 10.192 10.3893ZM5.272 8.824C5.07086 8.82084 4.87667 8.89756 4.732 9.03733C4.66162 9.10108 4.60537 9.17886 4.56687 9.26566C4.52838 9.35247 4.50849 9.44638 4.50849 9.54133C4.50849 9.63629 4.52838 9.7302 4.56687 9.817C4.60537 9.90381 4.66162 9.98159 4.732 10.0453C4.8772 10.1828 5.07074 10.2576 5.27067 10.2533C5.47032 10.2569 5.66335 10.1817 5.808 10.044C5.87913 9.98071 5.93605 9.90307 5.97503 9.81621C6.01401 9.72934 6.03416 9.63521 6.03416 9.54C6.03416 9.44479 6.01401 9.35066 5.97503 9.26379C5.93605 9.17693 5.87913 9.0993 5.808 9.036C5.737 8.96675 5.65292 8.91233 5.56066 8.87593C5.46841 8.83953 5.37116 8.82188 5.272 8.824Z" fill="var(--fill-0, black)"/>
</g>
</svg>
