<svg preserveAspectRatio="none" width="100%" height="100%" overflow="visible" style="display: block;" viewBox="0 0 21.3333 27.7684" fill="none" xmlns="http://www.w3.org/2000/svg">
<g id="Group">
<g id="Vector">
</g>
<path id="Vector_2" fill-rule="evenodd" clip-rule="evenodd" d="M21.3333 14.6831V21.3497C21.3333 22.4106 20.9119 23.428 20.1618 24.1781C19.4116 24.9283 18.3942 25.3497 17.3333 25.3497H4.00001C2.93914 25.3497 1.92172 24.9283 1.17158 24.1781C0.421433 23.428 5.90226e-06 22.4106 5.90226e-06 21.3497V14.6831H21.3333ZM10.6667 0.0163842C12.44 0.0163842 14.112 0.448384 15.5827 1.21505L16.3907 0.407051C16.5137 0.279704 16.6608 0.178128 16.8235 0.108249C16.9861 0.0383705 17.1611 0.00158876 17.3381 5.03423e-05C17.5152 -0.00148808 17.6907 0.0322476 17.8546 0.0992887C18.0185 0.16633 18.1673 0.265334 18.2925 0.390524C18.4177 0.515715 18.5167 0.664584 18.5838 0.828446C18.6508 0.992307 18.6845 1.16788 18.683 1.34492C18.6815 1.52196 18.6447 1.69692 18.5748 1.85959C18.5049 2.02226 18.4034 2.16939 18.276 2.29238L17.8093 2.75905C18.9202 3.75837 19.8081 4.98045 20.4153 6.34572C21.0225 7.711 21.3353 9.18885 21.3333 10.6831V12.0164H5.90226e-06V10.6831C-0.00156772 9.18898 0.311537 7.71132 0.918935 6.34628C1.52633 4.98124 2.41441 3.75943 3.52534 2.76038L3.05734 2.29372C2.80715 2.04371 2.66653 1.70455 2.6664 1.35086C2.66628 0.997162 2.80666 0.657905 3.05667 0.407718C3.30668 0.15753 3.64584 0.016906 3.99954 0.016781C4.35323 0.0166559 4.69248 0.15704 4.94267 0.407051L5.75067 1.21505C7.26948 0.42698 8.95558 0.0158572 10.6667 0.0163842ZM6.66667 5.34972C6.31305 5.34972 5.97391 5.49019 5.72386 5.74024C5.47382 5.99029 5.33334 6.32943 5.33334 6.68305C5.33334 7.03667 5.47382 7.37581 5.72386 7.62586C5.97391 7.87591 6.31305 8.01638 6.66667 8.01638C7.02029 8.01638 7.35943 7.87591 7.60948 7.62586C7.85953 7.37581 8.00001 7.03667 8.00001 6.68305C8.00001 6.32943 7.85953 5.99029 7.60948 5.74024C7.35943 5.49019 7.02029 5.34972 6.66667 5.34972ZM14.6667 5.34972C14.3131 5.34972 13.9739 5.49019 13.7239 5.74024C13.4738 5.99029 13.3333 6.32943 13.3333 6.68305C13.3333 7.03667 13.4738 7.37581 13.7239 7.62586C13.9739 7.87591 14.3131 8.01638 14.6667 8.01638C15.0203 8.01638 15.3594 7.87591 15.6095 7.62586C15.8595 7.37581 16 7.03667 16 6.68305C16 6.32943 15.8595 5.99029 15.6095 5.74024C15.3594 5.49019 15.0203 5.34972 14.6667 5.34972Z" fill="var(--fill-0, black)"/>
</g>
</svg>
