<svg preserveAspectRatio="none" width="100%" height="100%" overflow="visible" style="display: block;" viewBox="0 0 36 36" fill="none" xmlns="http://www.w3.org/2000/svg">
<g id="la:instagram">
<path id="Vector" d="M12.9026 5.625C8.90775 5.625 5.625 8.90325 5.625 12.9026V23.0974C5.625 27.0923 8.90325 30.375 12.9026 30.375H23.0974C27.0923 30.375 30.375 27.0968 30.375 23.0974V12.9038C30.375 8.90775 27.0968 5.625 23.0974 5.625H12.9026ZM12.9026 7.875H23.0974C23.7579 7.87411 24.412 8.00355 25.0224 8.2559C25.6328 8.50824 26.1874 8.87854 26.6544 9.34558C27.1215 9.81261 27.4918 10.3672 27.7441 10.9776C27.9965 11.588 28.1259 12.2421 28.125 12.9026V23.0974C28.1259 23.7579 27.9965 24.412 27.7441 25.0224C27.4918 25.6328 27.1215 26.1874 26.6544 26.6544C26.1874 27.1215 25.6328 27.4918 25.0224 27.7441C24.412 27.9965 23.7579 28.1259 23.0974 28.125H12.9038C12.2432 28.126 11.5889 27.9967 10.9784 27.7444C10.3679 27.4921 9.81313 27.1219 9.34597 26.6548C8.87882 26.1878 8.50842 25.6331 8.256 25.0227C8.00359 24.4122 7.87411 23.758 7.875 23.0974V12.9038C7.87396 12.2432 8.00329 11.5889 8.25557 10.9784C8.50785 10.3679 8.87813 9.81313 9.34518 9.34597C9.81223 8.87882 10.3669 8.50842 10.9773 8.256C11.5878 8.00359 12.242 7.87411 12.9026 7.875ZM24.6443 10.3365C24.5101 10.3356 24.3772 10.3614 24.2531 10.4123C24.1291 10.4632 24.0164 10.5382 23.9215 10.633C23.8267 10.7279 23.7517 10.8406 23.7008 10.9646C23.6499 11.0887 23.6241 11.2216 23.625 11.3557C23.625 11.9227 24.0773 12.375 24.6443 12.375C24.7784 12.376 24.9115 12.3504 25.0357 12.2996C25.1599 12.2487 25.2728 12.1737 25.3677 12.0789C25.4626 11.984 25.5378 11.8713 25.5888 11.7471C25.6397 11.623 25.6655 11.4899 25.6646 11.3557C25.6655 11.2216 25.6397 11.0885 25.5888 10.9644C25.5378 10.8402 25.4626 10.7275 25.3677 10.6326C25.2728 10.5378 25.1599 10.4628 25.0357 10.4119C24.9115 10.3611 24.7784 10.3355 24.6443 10.3365ZM18 11.25C14.2875 11.25 11.25 14.2875 11.25 18C11.25 21.7125 14.2875 24.75 18 24.75C21.7125 24.75 24.75 21.7125 24.75 18C24.75 14.2875 21.7125 11.25 18 11.25ZM18 13.5C20.5009 13.5 22.5 15.4991 22.5 18C22.5 20.5009 20.5009 22.5 18 22.5C15.4991 22.5 13.5 20.5009 13.5 18C13.5 15.4991 15.4991 13.5 18 13.5Z" fill="var(--fill-0, white)"/>
</g>
</svg>
