<svg width="948" height="948" viewBox="0 0 948 948" fill="none" xmlns="http://www.w3.org/2000/svg">
<circle cx="473" cy="474" r="269" fill="url(#paint0_linear_7_239)"/>
<g filter="url(#filter0_di_7_239)">
<path d="M463.031 551.056L481.743 422.979L175.964 341.597H493.632L534.187 64L631.241 341.597H789L660.181 424.373L789 792.827L572.3 480.843L463.031 551.056Z" fill="#F0EA47"/>
<path d="M406.447 510.644L359.01 572.562L459.226 649.341L506.663 587.422C506.663 587.422 570.273 636.155 621.829 568.861C667.739 508.936 604.129 460.203 604.129 460.203L503.912 383.425C503.912 383.425 445.075 338.348 399.165 398.273C347.609 465.567 406.447 510.644 406.447 510.644Z" fill="#F0F0F0"/>
<path d="M314.303 630.916L361.74 568.998L461.957 645.777L414.52 707.695C414.52 707.695 478.129 756.428 426.573 823.722C380.664 883.647 317.054 834.914 317.054 834.914L216.837 758.135C216.837 758.135 158 713.059 203.91 653.134C255.466 585.839 314.303 630.916 314.303 630.916Z" fill="#F0F0F0"/>
<circle cx="319.823" cy="732.447" r="57.6064" transform="rotate(-52.5434 319.823 732.447)" fill="#CE2323"/>
<circle cx="507.257" cy="487.795" r="57.6064" transform="rotate(-52.5434 507.257 487.795)" fill="#2367CE"/>
<rect x="279.291" y="723.879" width="80.8604" height="16.6053" rx="8.30263" fill="#F0F0F0"/>
<rect x="311.779" y="772.973" width="80.8604" height="15.8833" rx="7.94165" transform="rotate(-90 311.779 772.973)" fill="#F0F0F0"/>
<rect x="475.922" y="514.567" width="80.8604" height="16.6053" rx="8.30263" transform="rotate(-52.4469 475.922 514.567)" fill="#F0F0F0"/>
<rect x="534.645" y="518.733" width="80.8604" height="15.8833" rx="7.94165" transform="rotate(-142.447 534.645 518.733)" fill="#F0F0F0"/>
</g>
<defs>
<filter id="filter0_di_7_239" x="161.964" y="64" width="627.036" height="805.602" filterUnits="userSpaceOnUse" color-interpolation-filters="sRGB">
<feFlood flood-opacity="0" result="BackgroundImageFix"/>
<feColorMatrix in="SourceAlpha" type="matrix" values="0 0 0 0 0 0 0 0 0 0 0 0 0 0 0 0 0 0 127 0" result="hardAlpha"/>
<feOffset dx="-10" dy="12"/>
<feGaussianBlur stdDeviation="2"/>
<feComposite in2="hardAlpha" operator="out"/>
<feColorMatrix type="matrix" values="0 0 0 0 0 0 0 0 0 0 0 0 0 0 0 0 0 0 0.25 0"/>
<feBlend mode="normal" in2="BackgroundImageFix" result="effect1_dropShadow_7_239"/>
<feBlend mode="normal" in="SourceGraphic" in2="effect1_dropShadow_7_239" result="shape"/>
<feColorMatrix in="SourceAlpha" type="matrix" values="0 0 0 0 0 0 0 0 0 0 0 0 0 0 0 0 0 0 127 0" result="hardAlpha"/>
<feOffset dx="-7" dy="2"/>
<feGaussianBlur stdDeviation="2"/>
<feComposite in2="hardAlpha" operator="arithmetic" k2="-1" k3="1"/>
<feColorMatrix type="matrix" values="0 0 0 0 0 0 0 0 0 0 0 0 0 0 0 0 0 0 0.25 0"/>
<feBlend mode="normal" in2="shape" result="effect2_innerShadow_7_239"/>
</filter>
<linearGradient id="paint0_linear_7_239" x1="473" y1="205" x2="473" y2="743" gradientUnits="userSpaceOnUse">
<stop stop-color="#2263C5"/>
<stop offset="1" stop-color="#10305F"/>
</linearGradient>
</defs>
</svg>
