<svg preserveAspectRatio="none" width="100%" height="100%" overflow="visible" style="display: block;" viewBox="0 0 32 32" fill="none" xmlns="http://www.w3.org/2000/svg">
<g id="ri:playstation-fill">
<path id="Vector" d="M30.1133 22.6813C29.54 23.4053 28.136 23.9213 28.136 23.9213L17.6933 27.6773V24.9067L25.3787 22.164C26.2507 21.852 26.384 21.4093 25.676 21.1773C24.968 20.9453 23.6867 21.0107 22.8133 21.3253L17.6933 23.1307V20.2573L17.988 20.156C17.988 20.156 19.468 19.632 21.548 19.4013C23.6293 19.172 26.1773 19.4333 28.1773 20.192C30.4307 20.9053 30.684 21.9573 30.1133 22.6813ZM18.6867 17.964V10.8827C18.6867 10.0507 18.5333 9.28533 17.7533 9.06933C17.1573 8.87733 16.7867 9.432 16.7867 10.2627V28L12.0093 26.4813V5.33333C14.04 5.71067 17 6.604 18.5907 7.14C22.6373 8.53067 24.0093 10.2627 24.0093 14.1627C24.0093 17.964 21.6653 19.4053 18.6867 17.9653M3.24267 24.6187C0.927999 23.9653 0.542666 22.6053 1.59733 21.8227C2.572 21.1 4.23067 20.556 4.23067 20.556L11.0813 18.116V20.8973L6.15067 22.664C5.28 22.976 5.14667 23.4187 5.85333 23.6507C6.56267 23.884 7.844 23.8173 8.716 23.504L11.0813 22.6453V25.132L10.6093 25.212C8.244 25.5987 5.72533 25.4373 3.24267 24.6187Z" fill="var(--fill-0, black)"/>
</g>
</svg>
