<svg preserveAspectRatio="xMidYMid meet" width="100%" height="100%" overflow="visible" style="display: block;" viewBox="-94.5 0 820 820" fill="none" xmlns="http://www.w3.org/2000/svg">
<g id="Logo IGRS">
<circle id="Ellipse 3" cx="315" cy="410" r="269" fill="url(#paint0_linear_272_752)"/>
<g id="Group 2" filter="url(#filter0_di_272_752)">
<path id="Vector 1" d="M305.031 487.056L323.743 358.979L17.9646 277.597H335.632L376.188 0L473.241 277.597H631L502.181 360.373L631 728.827L414.3 416.843L305.031 487.056Z" fill="var(--fill-0, #F0EA47)"/>
<g id="Group 1">
<path id="Vector 2" d="M248.446 446.644L201.009 508.562L301.226 585.34L348.663 523.422C348.663 523.422 412.273 572.155 463.829 504.861C509.738 444.936 446.129 396.203 446.129 396.203L345.912 319.425C345.912 319.425 287.075 274.348 241.165 334.273C189.609 401.567 248.446 446.644 248.446 446.644Z" fill="var(--fill-0, #F0F0F0)"/>
<path id="Vector 3" d="M156.303 566.916L203.74 504.998L303.957 581.776L256.52 643.694C256.52 643.694 320.129 692.427 268.573 759.722C222.664 819.646 159.054 770.913 159.054 770.913L58.8373 694.135C58.8373 694.135 3.41447e-05 649.058 45.9098 589.134C97.4657 521.839 156.303 566.916 156.303 566.916Z" fill="var(--fill-0, #F0F0F0)"/>
<circle id="Ellipse 1" cx="161.823" cy="668.447" r="57.6064" transform="rotate(-52.5434 161.823 668.447)" fill="var(--fill-0, #CE2323)"/>
<circle id="Ellipse 2" cx="349.257" cy="423.795" r="57.6064" transform="rotate(-52.5434 349.257 423.795)" fill="var(--fill-0, #2367CE)"/>
</g>
<rect id="Rectangle 14" x="121.291" y="659.879" width="80.8604" height="16.6053" rx="8.30263" fill="var(--fill-0, #F0F0F0)"/>
<rect id="Rectangle 15" x="153.779" y="708.973" width="80.8604" height="15.8833" rx="7.94165" transform="rotate(-90 153.779 708.973)" fill="var(--fill-0, #F0F0F0)"/>
<rect id="Rectangle 16" x="317.922" y="450.567" width="80.8604" height="16.6053" rx="8.30263" transform="rotate(-52.4469 317.922 450.567)" fill="var(--fill-0, #F0F0F0)"/>
<rect id="Rectangle 17" x="376.645" y="454.733" width="80.8604" height="15.8833" rx="7.94165" transform="rotate(-142.447 376.645 454.733)" fill="var(--fill-0, #F0F0F0)"/>
</g>
</g>
<defs>
<filter id="filter0_di_272_752" x="3.96458" y="0" width="627.035" height="805.602" filterUnits="userSpaceOnUse" color-interpolation-filters="sRGB">
<feFlood flood-opacity="0" result="BackgroundImageFix"/>
<feColorMatrix in="SourceAlpha" type="matrix" values="0 0 0 0 0 0 0 0 0 0 0 0 0 0 0 0 0 0 127 0" result="hardAlpha"/>
<feOffset dx="-10" dy="12"/>
<feGaussianBlur stdDeviation="2"/>
<feComposite in2="hardAlpha" operator="out"/>
<feColorMatrix type="matrix" values="0 0 0 0 0 0 0 0 0 0 0 0 0 0 0 0 0 0 0.25 0"/>
<feBlend mode="normal" in2="BackgroundImageFix" result="effect1_dropShadow_272_752"/>
<feBlend mode="normal" in="SourceGraphic" in2="effect1_dropShadow_272_752" result="shape"/>
<feColorMatrix in="SourceAlpha" type="matrix" values="0 0 0 0 0 0 0 0 0 0 0 0 0 0 0 0 0 0 127 0" result="hardAlpha"/>
<feOffset dx="-7" dy="2"/>
<feGaussianBlur stdDeviation="2"/>
<feComposite in2="hardAlpha" operator="arithmetic" k2="-1" k3="1"/>
<feColorMatrix type="matrix" values="0 0 0 0 0 0 0 0 0 0 0 0 0 0 0 0 0 0 0.25 0"/>
<feBlend mode="normal" in2="shape" result="effect2_innerShadow_272_752"/>
</filter>
<linearGradient id="paint0_linear_272_752" x1="315" y1="141" x2="315" y2="679" gradientUnits="userSpaceOnUse">
<stop stop-color="#2263C5"/>
<stop offset="1" stop-color="#10305F"/>
</linearGradient>
</defs>
</svg>
